<?xml version="1.0" standalone="no"?>
<!DOCTYPE svg PUBLIC "-//W3C//DTD SVG 20010904//EN"
 "http://www.w3.org/TR/2001/REC-SVG-20010904/DTD/svg10.dtd">
<svg version="1.0" xmlns="http://www.w3.org/2000/svg"
 width="50pt" height="50pt" viewBox="0 0 3000 3000"
 preserveAspectRatio="xMidYMid meet">

<g transform="translate(0.000000,2917.000000) scale(0.100000,-0.100000)"
fill="#FFFFFF" stroke="none">
<path d="M1051 27274 c-83 -22 -150 -63 -221 -134 -77 -77 -116 -144 -135
-237 -22 -101 -22 -15033 -1 -15134 36 -168 153 -302 324 -371 l57 -23 5973
-5 5972 -5 -1806 -1910 c-993 -1050 -1829 -1941 -1858 -1980 -114 -152 -187
-305 -234 -495 l-27 -105 -2 -2274 c-3 -2025 -2 -2281 12 -2335 47 -186 187
-323 378 -373 82 -21 205 -13 284 19 98 40 18194 9188 18265 9234 212 136 366
360 436 634 15 60 17 605 19 7545 3 5521 1 7498 -8 7548 -24 145 -122 280
-254 348 -89 46 -150 61 -250 60 -125 0 -227 -40 -331 -128 -15 -13 -12936
-13960 -12993 -14025 -4 -5 -2951 3144 -6549 6996 -3598 3852 -6562 7022
-6586 7044 -51 47 -129 89 -201 108 -65 18 -195 17 -264 -2z"/>
</g>
</svg>
