<?xml version="1.0" standalone="no"?>
<!DOCTYPE svg PUBLIC "-//W3C//DTD SVG 20010904//EN"
 "http://www.w3.org/TR/2001/REC-SVG-20010904/DTD/svg10.dtd">
<svg version="1.0" xmlns="http://www.w3.org/2000/svg"
 width="825.000000pt" height="825.000000pt" viewBox="0 0 825.000000 825.000000"
 preserveAspectRatio="xMidYMid meet">

<g transform="translate(0.000000,825.000000) scale(0.100000,-0.100000)"
fill="#4d19cc" stroke="#">
<path d="M0 4125 l0 -4125 4125 0 4125 0 0 4125 0 4125 -4125 0 -4125 0 0
-4125z m2315 2381 c73 -33 125 -75 168 -134 143 -197 93 -479 -108 -607 -132
-85 -316 -87 -445 -5 -227 145 -264 466 -74 656 93 93 178 125 315 120 67 -3
99 -9 144 -30z m3205 -129 c172 -46 326 -113 452 -198 86 -58 263 -238 322
-329 286 -436 289 -977 9 -1399 -178 -268 -446 -453 -773 -534 -84 -20 -107
-21 -1395 -27 -1202 -5 -1315 -7 -1368 -23 -269 -80 -465 -305 -507 -582 -46
-302 120 -605 405 -741 129 -62 149 -64 778 -64 l567 0 0 205 0 205 143 -93
c396 -259 877 -580 877 -586 0 -8 -1003 -681 -1014 -681 -3 0 -6 90 -6 199 l0
200 -612 4 c-523 3 -623 6 -680 20 -448 109 -804 420 -947 829 -126 361 -76
764 132 1076 199 298 422 455 787 554 34 9 372 13 1360 18 1481 6 1351 -1
1530 87 78 38 109 61 176 128 135 137 204 308 204 508 0 164 -50 308 -151 435
-65 82 -143 143 -254 198 -155 77 -103 74 -1355 74 l-1108 0 -53 28 c-124 65
-178 218 -124 348 27 65 103 133 175 155 14 4 552 7 1195 5 1074 -2 1175 -3
1235 -19z m120 -3682 c107 -107 200 -195 206 -195 6 0 97 88 202 195 106 107
195 195 199 195 5 0 71 -63 148 -140 l140 -140 -203 -203 -202 -202 186 -185
c102 -102 190 -193 196 -204 9 -16 -9 -38 -130 -158 l-139 -140 -199 201 -198
202 -202 -202 -202 -202 -142 143 -142 143 201 201 201 201 -202 202 -203 203
140 140 c77 77 142 140 145 140 3 0 93 -88 200 -195z"/>
</g>
</svg>
